Patient4_TMGait_0pt8_01_left_50_EMG.mot
version=1
nRows=13
nColumns=33
inDegrees=no
endheader
time	1LAddLong	2LGlutMax	3LGlutMed	4LIliopsoas	5LSemiMemb	6LBicFemLong	7LRecFem	8LVastMed	9LVastLat	10LGasMed	11LTibAnt	12lTibPost	13LPeroneusLong	14LSol	15LExtDigLong	16LFlexDigLong	17RAddLong	18RGlutMax	19RGlutMed	20RIliopsoas	21RSemiMemb	22RBicFemLong	23RRecFem	24RVastMed	25RVastLat	26RGasMed	27RTibAnt	28RTibPost	29RPeroneusLong	30RSol	31RExtDigLong	32RFlexDigLong
56.92	0.00946	0.40268	0.01358	0.01709	-0.027161	-0.054169	0.014038	0.001984	0.14236	-0.01358	0.014038	-0.005341	-0.037231	0.14236	-0.066223	0.010529	-0.00351	0.19714	-0.37338	-0.0177	-0.40253	0.10834	-0.10483	0.067444	-0.054626	0.001526	-0.62363	-0.003052	0.67123	-0.0354	-0.002136	0.011597
56.921	0.01236	0.36194	-0.007019	0.009918	0.020752	-0.069122	0.007477	0.007019	0.14267	0.0177	0.076599	-0.010986	0.015564	0.12985	-0.045624	0.01236	-0.010681	0.15656	-0.47897	-0.008545	-0.39536	0.11704	-0.42145	-0.016022	-0.11246	0.002747	0.040131	0.000305	-0.5098	-0.046844	-0.00061	0.000916
56.922	0.010834	0.34729	-0.018158	0.006866	0.025787	-0.044861	0.00412	0.002899	0.13626	0.007477	0.10452	-0.006866	0.035248	0.076599	-0.038452	0.008392	-0.028229	0.15869	-0.12314	-0.037842	0.094604	0.029602	-0.49805	0.046387	-0.016327	-0.001068	0.19165	-0.009918	-0.66315	0.06012	0.005188	0
56.923	0.021057	0.31632	-0.03418	0.005646	0.025177	-0.044708	0.006561	0.000458	0.13626	0	0.10101	-0.012512	-0.048523	0.049744	-0.017548	0.012665	-0.02594	0.1506	0.21408	-0.055389	0.1944	-0.047607	-0.25345	0.18921	0.078583	-0.014343	0.047455	-0.005493	-0.6665	0.21439	-0.000153	-0.009918
56.924	0.028229	0.30716	-0.020599	-0.00946	0.015564	-0.048828	0.006714	0.005341	0.13596	-0.022583	-0.010223	-0.013885	0.019836	0.064545	-0.007172	0.023651	0.001831	0.16068	-0.002289	-0.10346	0.075836	-0.062561	-0.17105	0.085754	-0.054169	-0.017395	0.04425	-0.003815	-0.025635	0.21027	-0.002899	-0.011139
56.925	0.018768	0.24521	-0.024872	0.016022	-0.005188	-0.040588	0.004883	0.004425	0.13702	-0.018158	-0.10513	-0.01297	0.083923	0.098267	0.00946	0.02655	-0.000153	0.09613	-0.44022	-0.12619	0.029144	-0.054016	-0.29037	0.049286	0.026245	-0.013123	0.01236	-0.005188	0.2446	0.050201	-0.004272	-0.00885
56.926	0.026398	0.1973	-0.016327	-0.007629	0.001831	-0.022583	-0.001068	0.002899	0.13657	0.002289	-0.044556	-0.015411	0.014648	0.098267	0.023041	0.014496	-0.007172	0.023041	-0.46921	-0.11581	-0.005646	-0.070496	-0.19806	0.067444	0.072021	-0.016327	-0.010071	-0.00351	0.023956	0.046234	-0.003357	-0.011902
56.927	0.017853	0.1535	-0.002899	-0.007172	0.014496	-0.040894	0.00473	0.009003	0.12085	0.007935	-0.024567	-0.014343	-0.002136	0.081177	0.025787	0.005341	0.016479	-0.056458	0.23086	0.016174	-0.019989	-0.17609	-0.13779	0.027313	0.1033	-0.013885	0.079956	-0.000153	0.04837	0.072174	-0.004578	-0.007324
56.928	0.021973	0.097046	0.00885	0.011292	0.002594	-0.028229	-0.009918	0.006409	0.13397	-0.02533	-0.016785	-0.016327	0.02533	-0.04837	0.018616	0.012817	0.020752	-0.054474	0.09079	0.099792	-0.033875	-0.12405	-0.12268	-0.03479	0.03891	-0.00473	0.090942	0.002441	0.058289	0.085754	-0.000305	-0.009613
56.929	0.014954	0.051117	0.03418	0.004425	-0.001373	-0.017395	-0.016632	0.006561	0.11856	-0.028076	-0.006561	-0.005341	0.027771	-0.12192	0.008087	0.013275	0.017242	-0.079803	-0.27557	0.11795	-0.045471	-0.06134	-0.26581	-0.051422	0.031433	-0.004883	0.087891	-0.002594	-0.016022	0.12299	-0.003662	0.004425
56.93	0.004272	0.042877	0.029602	-0.004883	-0.026398	0.013885	-0.019073	0.01709	0.12192	-0.038605	0.004272	-0.013123	0.039063	-0.23193	-0.003967	-0.000763	0.021362	-0.074463	-0.16968	0.16693	-0.10223	-0.023193	-0.21896	-0.032654	0.37399	-0.012512	0.10346	-0.003967	0.28397	0.13519	-0.00061	0.001984
56.931	0.00473	0.035706	-0.014496	0.014038	-0.036774	-0.035553	-0.019684	0.001831	0.11276	-0.031433	0	-0.015869	0.034943	-0.11032	0.015869	-0.005188	0.012665	-0.07843	0.094452	0.15854	-0.067749	-0.002594	-0.056763	-0.035858	0.40955	-0.015411	0.096436	-0.002899	-0.21668	0.044403	-0.003052	0.001221
56.932	0.010834	0.052643	-0.063934	0.006561	-0.031128	-0.066986	-0.016174	0.004883	0.11002	-0.002441	-0.003204	-0.019226	0.048981	-0.010681	0.032043	0.030975	-0.014343	-0.15472	0.31693	0.034485	-0.040131	0.024109	0.048065	-0.064392	0.31494	-0.020905	0.15472	-0.003204	-0.11246	0.007019	-0.00412	-0.00412
